<svg width="28" height="23" viewBox="0 0 28 23" fill="none" xmlns="http://www.w3.org/2000/svg">
<path d="M27.5607 10.4393C28.1464 11.0251 28.1464 11.9749 27.5607 12.5607L18.0147 22.1066C17.4289 22.6924 16.4792 22.6924 15.8934 22.1066C15.3076 21.5208 15.3076 20.5711 15.8934 19.9853L24.3787 11.5L15.8934 3.01472C15.3076 2.42893 15.3076 1.47919 15.8934 0.893398C16.4792 0.307611 17.4289 0.307611 18.0147 0.893398L27.5607 10.4393ZM1.5 13C0.671574 13 0 12.3284 0 11.5C0 10.6716 0.671574 10 1.5 10V13ZM26.5 13H1.5V10H26.5V13Z" fill="#F2F2F2"/>
</svg>
