<svg width="119" height="97" viewBox="0 0 119 97" fill="none" xmlns="http://www.w3.org/2000/svg">
<path fill-rule="evenodd" clip-rule="evenodd" d="M55.5937 1.62661C69.7975 1.24793 84.8092 -3.32678 96.4764 4.77972C109.751 14.0028 118.302 29.4998 118.949 45.6466C119.619 62.3369 113.666 80.4721 99.8897 89.9253C87.2327 98.6103 70.9366 88.5894 55.5937 89.1199C39.0966 89.6902 20.8731 103.579 8.12411 93.0978C-4.6625 82.5855 1.05103 62.1121 2.71508 45.6466C4.15182 31.4303 5.85115 16.0469 16.8352 6.90304C27.2509 -1.76778 42.0439 1.98787 55.5937 1.62661Z" fill="black"/>
<path fill-rule="evenodd" clip-rule="evenodd" d="M27.453 29.3838L27 29.7677V48.801V67.8342L27.4616 68.2253L27.9232 68.6166L38.6824 68.5646C50.9561 68.5054 50.5002 68.5517 53.4415 67.0648C54.662 66.4477 55.2094 66.0375 56.4729 64.7928C57.7364 63.5482 58.1528 63.009 58.7792 61.8066C59.7828 59.88 60.1859 58.307 60.1971 56.2727C60.2121 53.5427 59.6678 51.5547 58.3265 49.4391C57.6195 48.324 56.2991 46.8451 55.4481 46.2149L54.9964 45.8806L55.5718 44.7552C56.3455 43.2419 56.6598 41.8255 56.6506 39.8945C56.6416 37.9849 56.3674 36.858 55.4703 35.0437C54.9346 33.9603 54.5261 33.4197 53.4134 32.3213C52.2429 31.166 51.784 30.8366 50.4911 30.2235C47.9412 29.0145 47.7839 29 37.1872 29H27.9061L27.453 29.3838ZM69.542 31.0246C69.2209 31.4267 69.1991 31.6101 69.2477 33.5043C69.2971 35.4311 69.3223 35.5672 69.6813 35.8534C70.0438 36.142 70.4177 36.157 77.2981 36.157H84.5338L84.8805 35.7228C85.2011 35.3214 85.2232 35.1367 85.1748 33.2738C85.1302 31.5611 85.0762 31.2088 84.8148 30.9248C84.5109 30.5944 84.42 30.5904 77.198 30.5904H69.8886L69.542 31.0246ZM47.1814 36.738C48.0112 37.1779 48.4533 37.6523 48.863 38.5426C49.4426 39.8021 49.2274 41.1036 48.2542 42.2234C47.1765 43.4638 47.1652 43.4655 40.3601 43.4695L34.346 43.473V39.8874V36.3017L40.4408 36.3486C46.3247 36.394 46.5578 36.4073 47.1814 36.738ZM76.0004 38.0618C71.5881 38.6125 67.5111 41.1277 65.0598 44.8118C62.4306 48.7634 61.7399 53.7832 63.1981 58.3398C64.8633 63.5426 68.8603 67.2451 74.3858 68.7034C76.01 69.132 79.5366 69.0893 81.3282 68.6193C84.2542 67.8516 86.5596 66.4876 88.6843 64.2674C89.8848 63.0128 91.4996 60.6472 91.4996 60.143C91.4996 59.5808 91.1792 59.5364 87.1235 59.5364H83.1347L82.4334 60.1174C79.4954 62.551 75.0471 62.1791 72.2836 59.2689C71.2881 58.2207 70.4621 56.7934 70.2525 55.7591L70.1478 55.2423H81.1992H92.2506L92.6409 54.8329C92.9944 54.4625 93.0271 54.3076 92.9863 53.2027C92.8085 48.4024 90.6761 44.117 87.0371 41.2473C83.9652 38.8251 79.7152 37.5984 76.0004 38.0618ZM79.633 45.5713C81.1272 45.9356 82.918 47.1789 83.8847 48.5226L84.2563 49.0395H77.7009H71.1455L71.3398 48.6817C71.7398 47.945 73.2752 46.6618 74.4225 46.1052C76.1124 45.2856 77.7665 45.1161 79.633 45.5713ZM49.9325 51.4508C50.9243 51.9664 52.0147 53.1006 52.4808 54.101C52.9666 55.1438 52.9666 57.0902 52.4808 58.133C52.0147 59.1334 50.9243 60.2676 49.9325 60.7832L49.1188 61.2064L41.7324 61.2522L34.346 61.298V56.117V50.936L41.7324 50.9818L49.1188 51.0276L49.9325 51.4508Z" fill="white"/>
</svg>
