<svg width="120" height="147" viewBox="0 0 120 147" fill="none" xmlns="http://www.w3.org/2000/svg">
<mask id="mask0_101_181" style="mask-type:alpha" maskUnits="userSpaceOnUse" x="0" y="0" width="120" height="147">
<path fill-rule="evenodd" clip-rule="evenodd" d="M57.3151 0.000132229C77.8444 0.0437597 98.4336 10.8997 109.381 28.2666C119.006 43.5351 106.95 62.3117 107.953 80.3325C109.084 100.641 128.563 122.93 115.522 138.539C102.579 154.031 77.4731 142.024 57.3151 140.941C38.9999 139.957 16.9335 146.57 5.04554 132.602C-6.69495 118.808 5.73343 98.4466 5.73028 80.3325C5.72714 62.2121 -4.76366 43.2924 5.0274 28.0449C16.1369 10.7442 36.7546 -0.0435614 57.3151 0.000132229Z" fill="#C4C4C4"/>
</mask>
<g mask="url(#mask0_101_181)">
<g filter="url(#filter0_f_101_181)">
<ellipse cx="67.5" cy="60" rx="107.5" ry="83" fill="#DF30BA"/>
</g>
<g filter="url(#filter1_f_101_181)">
<ellipse cx="146.5" cy="91" rx="69.5" ry="69" fill="#E93366"/>
</g>
<g filter="url(#filter2_f_101_181)">
<ellipse cx="39.5" cy="115" rx="69.5" ry="69" fill="#F6CB45"/>
</g>
<g filter="url(#filter3_f_101_181)">
<ellipse cx="24.4162" cy="12.1394" rx="64.5" ry="38" transform="rotate(-24.2514 24.4162 12.1394)" fill="#661FF5"/>
</g>
</g>
<path fill-rule="evenodd" clip-rule="evenodd" d="M45.7448 48.1437C42.945 48.5611 40.7308 49.6812 38.7091 51.703C36.6298 53.7823 35.4886 56.1038 35.1109 59.0228C34.963 60.1651 34.963 85.8227 35.1109 86.965C35.4886 89.884 36.6298 92.2055 38.7091 94.2848C40.7884 96.3641 43.1099 97.5053 46.0289 97.883C47.1712 98.0308 72.8288 98.0308 73.9711 97.883C76.8901 97.5053 79.2116 96.3641 81.2909 94.2848C83.3702 92.2055 84.5114 89.884 84.8891 86.965C85.037 85.8227 85.037 60.1651 84.8891 59.0228C84.5114 56.1038 83.3702 53.7823 81.2909 51.703C79.2116 49.6237 76.8901 48.4825 73.9711 48.1048C72.7201 47.9429 46.8523 47.9785 45.7448 48.1437ZM75.0099 52.5596C76.1084 52.9421 76.3547 53.0657 77.2581 53.6874C78.7086 54.6857 79.8485 56.2351 80.4229 57.9895L80.7481 58.9828V72.9939C80.7481 86.4039 80.7403 87.0301 80.5656 87.5908C79.9042 89.714 78.7801 91.2801 77.1038 92.4139C76.3881 92.898 75.7588 93.1902 74.7391 93.5122L74.0111 93.742H60H45.9889L44.9957 93.4168C42.2591 92.5208 40.3458 90.5165 39.4344 87.5908C39.2597 87.0301 39.2519 86.4039 39.2519 72.9939C39.2519 59.5839 39.2597 58.9577 39.4344 58.397C40.129 56.1672 41.3374 54.5487 43.1514 53.418C43.9127 52.9436 45.2184 52.4339 46.0297 52.2945C46.2758 52.2522 52.6942 52.224 60.2929 52.2317L74.1087 52.2458L75.0099 52.5596ZM72.8882 56.4359C72.1923 56.5867 71.7946 56.803 71.3269 57.2849C70.6891 57.9421 70.4958 58.452 70.498 59.471C70.4996 60.2308 70.5348 60.4159 70.7581 60.8379C71.2964 61.8559 72.2071 62.4513 73.3386 62.5252C74.1644 62.5791 74.6042 62.4593 75.3023 61.9903C77.2453 60.6848 77.0221 57.7059 74.9058 56.6989C74.1827 56.3547 73.6084 56.2799 72.8882 56.4359ZM58.4022 60.6002C53.6843 61.2541 49.6643 64.5427 48.1959 68.9497C47.6943 70.4553 47.5566 71.3262 47.5566 72.9939C47.5566 74.6627 47.6938 75.5299 48.1979 77.0459C49.373 80.5797 52.4209 83.6203 55.9751 84.8044C57.4609 85.2994 58.3377 85.4373 60 85.4373C61.6623 85.4373 62.5391 85.2994 64.0249 84.8044C67.5791 83.6203 70.627 80.5797 71.8021 77.0459C72.3062 75.5299 72.4434 74.6627 72.4434 72.9939C72.4434 70.8055 72.0176 69.0191 71.0713 67.2372C69.2703 63.8465 66.1572 61.5158 62.3921 60.7397C61.4525 60.546 59.3288 60.4717 58.4022 60.6002ZM62.5122 65.0718C63.5536 65.4177 63.8351 65.5531 64.6378 66.0942C66.2757 67.1986 67.3853 68.7277 68.0184 70.7525C68.2157 71.3835 68.2459 71.6822 68.2459 72.9939C68.2459 74.6056 68.13 75.1961 67.5614 76.482C66.8371 78.1197 65.1219 79.8328 63.4789 80.5594C62.2028 81.1237 61.609 81.2398 60 81.2398C58.391 81.2398 57.7972 81.1237 56.5211 80.5594C54.8781 79.8328 53.1629 78.1197 52.4386 76.482C51.87 75.1961 51.7541 74.6056 51.7541 72.9939C51.7541 71.6822 51.7843 71.3835 51.9816 70.7525C52.3138 69.6899 52.606 69.0767 53.1664 68.2661C54.2703 66.6693 55.8157 65.5596 57.7098 65.0038C58.6682 64.7226 58.8172 64.7074 60.2929 64.7418C61.4541 64.7689 61.7183 64.8082 62.5122 65.0718Z" fill="white"/>
<defs>
<filter id="filter0_f_101_181" x="-104" y="-87" width="343" height="294" filterUnits="userSpaceOnUse" color-interpolation-filters="sRGB">
<feFlood flood-opacity="0" result="BackgroundImageFix"/>
<feBlend mode="normal" in="SourceGraphic" in2="BackgroundImageFix" result="shape"/>
<feGaussianBlur stdDeviation="32" result="effect1_foregroundBlur_101_181"/>
</filter>
<filter id="filter1_f_101_181" x="13" y="-42" width="267" height="266" filterUnits="userSpaceOnUse" color-interpolation-filters="sRGB">
<feFlood flood-opacity="0" result="BackgroundImageFix"/>
<feBlend mode="normal" in="SourceGraphic" in2="BackgroundImageFix" result="shape"/>
<feGaussianBlur stdDeviation="32" result="effect1_foregroundBlur_101_181"/>
</filter>
<filter id="filter2_f_101_181" x="-94" y="-18" width="267" height="266" filterUnits="userSpaceOnUse" color-interpolation-filters="sRGB">
<feFlood flood-opacity="0" result="BackgroundImageFix"/>
<feBlend mode="normal" in="SourceGraphic" in2="BackgroundImageFix" result="shape"/>
<feGaussianBlur stdDeviation="32" result="effect1_foregroundBlur_101_181"/>
</filter>
<filter id="filter3_f_101_181" x="-100.443" y="-95.4777" width="249.718" height="215.234" filterUnits="userSpaceOnUse" color-interpolation-filters="sRGB">
<feFlood flood-opacity="0" result="BackgroundImageFix"/>
<feBlend mode="normal" in="SourceGraphic" in2="BackgroundImageFix" result="shape"/>
<feGaussianBlur stdDeviation="32" result="effect1_foregroundBlur_101_181"/>
</filter>
</defs>
</svg>
