<svg width="167" height="152" viewBox="0 0 167 152" fill="none" xmlns="http://www.w3.org/2000/svg">
<path fill-rule="evenodd" clip-rule="evenodd" d="M27.6112 38.6298C39.9459 24.7242 62.4742 34.4853 81.0571 34.0565C92.4389 33.7938 103.522 31.7637 113.81 36.6406C124.853 41.8758 133.722 50.3754 138.866 61.4614C145.076 74.8423 150.627 90.016 144.885 103.604C138.737 118.151 124.527 128.379 109.121 131.851C94.4248 135.164 80.5502 127.707 66.9806 121.164C52.1624 114.018 35.7902 107.922 28.7074 93.0735C20.5833 76.0421 15.0895 52.7463 27.6112 38.6298Z" fill="#57A5D8"/>
<path fill-rule="evenodd" clip-rule="evenodd" d="M102.632 59.2282C99.3041 60.4629 58.2857 76.3553 57.6816 76.6441C55.674 77.6037 55.4393 78.8712 57.1106 79.7286C57.2719 79.8113 60.0483 80.7067 63.2803 81.7184L69.1568 83.5577L82.5004 75.1395C89.8393 70.5095 95.9917 66.6693 96.1724 66.6059C96.6255 66.4465 97.0155 66.4614 97.1976 66.645C97.325 66.7735 97.3303 66.838 97.229 67.0269C97.162 67.1518 92.2885 71.6153 86.399 76.9457C80.5095 82.2761 75.675 86.679 75.6556 86.7301C75.6362 86.7811 75.437 89.4424 75.2129 92.644L74.8055 98.4651L75.2482 98.4049C75.4917 98.3717 75.8773 98.245 76.105 98.1232C76.3329 98.0015 77.8661 96.6007 79.5125 95.0105C81.1587 93.4202 82.5627 92.0971 82.6324 92.0701C82.702 92.0432 85.3237 93.916 88.4583 96.232C91.5928 98.548 94.4031 100.557 94.7032 100.697C95.4907 101.064 96.3777 101.101 96.9538 100.79C97.4684 100.512 97.9713 99.8223 98.1828 99.104C98.2647 98.826 100.057 90.4756 102.165 80.5473C105.676 64.0175 105.999 62.4171 106 61.5592C106.001 60.7486 105.968 60.5558 105.752 60.1292C105.6 59.8284 105.342 59.5213 105.088 59.3418C104.51 58.9313 103.552 58.887 102.632 59.2282Z" fill="white"/>
</svg>
